<?xml version="1.0" standalone="no"?>
<!DOCTYPE svg PUBLIC "-//W3C//DTD SVG 20010904//EN"
 "http://www.w3.org/TR/2001/REC-SVG-20010904/DTD/svg10.dtd">
<svg version="1.0" xmlns="http://www.w3.org/2000/svg"
 width="260.000000pt" height="260.000000pt" viewBox="0 0 260.000000 260.000000"
 preserveAspectRatio="xMidYMid meet">
<metadata>
Created by potrace 1.11, written by Peter Selinger 2001-2013
</metadata>
<g transform="translate(0.000000,260.000000) scale(0.100000,-0.100000)"
fill="#000000" stroke="none">
<path d="M1110 2539 c-234 -45 -390 -112 -560 -242 -62 -47 -220 -204 -220
-219 0 -4 -6 -13 -13 -20 -70 -72 -171 -286 -206 -440 -131 -559 137 -1122
656 -1377 172 -85 342 -121 553 -116 155 4 163 5 285 37 715 190 1095 971 805
1651 -161 375 -509 650 -912 721 -90 16 -316 18 -388 5z m404 -153 c323 -70
596 -284 742 -581 77 -159 108 -297 107 -485 -2 -505 -369 -940 -877 -1040
-78 -16 -244 -20 -331 -8 -409 54 -756 343 -884 738 -35 107 -49 199 -49 330
-1 463 308 881 754 1020 38 11 86 24 107 26 20 3 50 9 65 14 47 13 282 4 366
-14z"/>
<path d="M672 1599 c-42 -44 -13 -119 46 -119 219 -3 413 -148 485 -362 3 -9
9 -43 12 -75 9 -84 14 -105 33 -120 26 -19 76 -16 97 7 34 37 16 185 -35 305
-92 214 -303 365 -536 382 -75 5 -82 4 -102 -18z"/>
<path d="M1700 1599 c-39 -10 -95 -31 -123 -46 -79 -42 -187 -127 -187 -147 0
-17 63 -136 72 -136 4 0 8 4 8 10 0 17 92 99 144 129 76 44 162 68 244 70 71
2 102 80 50 124 -27 23 -108 21 -208 -4z"/>
</g>
</svg>
